<svg xmlns="http://www.w3.org/2000/svg" viewBox="0 0 441 560" fill="none">
  <g fill="#fff" stroke="#fff" stroke-width="6" stroke-linejoin="round">
    <path d="M217.2 506c-37.2.4-69.1-13.4-90.5-42.4-3.1 5.1-2.9 11.9-7.2 16.2-6.5-4.8-4-22.2-13.5-22.2-6.1-.7-12.7.9-18.3-2 2.8-7.7 18-9.5 16.3-18.5-5.1-19.6-10.5-24.4 10.4-10.6-11.1-58.4-16-175.9-4.1-179.5 3.2-.7 6.2 23.1 10.8 34 .5 4.9 15.9-11.1 19.3-11.8 3.8-1.5 2.3 3.4 1.5 5.3-17.2 48-22.8 99.6-18.6 150.3-.7 7.7 11.7-7.9 15.9-6.5 1.1 6.4-2.9 12.6-4.2 18.8-1.8 8.7 13.6 11 16.5 18.4-5.6 3.6-12.8.7-18.8 2.7 20.7 26.2 59 29.2 89.5 22.5 109.3-23.4 122.9-140.2 15.8-180.5-33.5-15.5-68.6-28.7-97.7-52.1C92 211.6 73.8 138.3 110.3 87.6c41.1-61.1 157.8-57.7 183.5 14.4-24.5-20.4-49.3-38.2-83.3-36.9-39.8-1.6-79.8 27-82.7 68.4-10.1 83.6 80.8 113.2 142.1 141C408.8 334.9 360 501.9 217.2 506Z"/>
    <path d="M304.9 118.4c0-2.2-7.4-35 0-26.7 16.1 17.7 21.3 38.7 16.8 61.8-5.8 29.5-24.2 49.3-50.7 62-2.4 1.1-2 1.6-.3 2.9 4 3.5 9.8 5.7 11.9 10.8-5.6 2.8-12.5 1.1-18.7 1.8-10 1.2-6.7 16.6-13.6 22-6.6-5.3-3.6-20.9-13.2-22-6.3-.6-13.1.9-18.9-1.8 2.8-5.6 9.2-8.2 13.8-12.2 7.9-6.8-3.7-17.3-1.5-25.7 8.6.2 14.8 14.6 23.4 9.8 11.4-7.1 21.2-19.8 13.9 3.3 29.8-21.3 36.1-62.3 14.2-90.8-.9-1.2.1-2.1 1.3-2 6.2 2.1 11.7 5.9 17.5 9 .5 1.5.7-.3 1.1-2.6Z"/>
  </g>
</svg>
